<?xml version="1.0" encoding="UTF-8"?>
<svg xmlns="http://www.w3.org/2000/svg" xmlns:xlink="http://www.w3.org/1999/xlink" width="300px" height="250px" viewBox="0 0 300 250" version="1.1">
<g id="surface1">
<path style=" stroke:none;fill-rule:nonzero;fill:rgb(77.254902%,80%,82.745098%);fill-opacity:1;" d="M 228.433594 206.027344 L 228.433594 88.480469 C 228.433594 81.941406 223.136719 76.640625 216.601562 76.640625 L 74.078125 76.640625 C 67.542969 76.640625 62.246094 81.941406 62.246094 88.480469 L 62.246094 206.027344 C 62.246094 212.5625 67.542969 217.867188 74.078125 217.867188 L 216.601562 217.867188 C 223.136719 217.863281 228.433594 212.5625 228.433594 206.027344 Z M 228.433594 206.027344 "/>
<path style=" stroke:none;fill-rule:nonzero;fill:rgb(77.254902%,80%,82.745098%);fill-opacity:1;" d="M 38.273438 116.152344 L 62.25 116.152344 L 62.25 182.921875 L 38.273438 182.921875 C 36.175781 182.921875 34.472656 181.21875 34.472656 179.117188 L 34.472656 119.957031 C 34.46875 117.855469 36.171875 116.152344 38.273438 116.152344 Z M 38.273438 116.152344 "/>
<path style=" stroke:none;fill-rule:nonzero;fill:rgb(77.254902%,80%,82.745098%);fill-opacity:1;" d="M 228.433594 116.152344 L 252.410156 116.152344 C 254.507812 116.152344 256.210938 117.855469 256.210938 119.957031 L 256.210938 179.113281 C 256.210938 181.214844 254.507812 182.917969 252.410156 182.917969 L 228.433594 182.917969 Z M 228.433594 116.152344 "/>
<path style=" stroke:none;fill-rule:nonzero;fill:rgb(45.490196%,84.313725%,96.862745%);fill-opacity:1;" d="M 121.871094 125.316406 C 121.871094 132.125 116.355469 137.644531 109.550781 137.644531 C 102.75 137.644531 97.234375 132.125 97.234375 125.316406 C 97.234375 118.503906 102.75 112.984375 109.550781 112.984375 C 116.355469 112.984375 121.871094 118.503906 121.871094 125.316406 Z M 121.871094 125.316406 "/>
<path style=" stroke:none;fill-rule:nonzero;fill:rgb(45.490196%,84.313725%,96.862745%);fill-opacity:1;" d="M 193.460938 125.316406 C 193.460938 132.125 187.945312 137.644531 181.140625 137.644531 C 174.339844 137.644531 168.824219 132.125 168.824219 125.316406 C 168.824219 118.503906 174.339844 112.984375 181.140625 112.984375 C 187.945312 112.984375 193.460938 118.503906 193.460938 125.316406 Z M 193.460938 125.316406 "/>
<path style=" stroke:none;fill-rule:nonzero;fill:rgb(45.490196%,84.313725%,96.862745%);fill-opacity:1;" d="M 181.140625 162.609375 C 181.140625 179.730469 165.113281 193.605469 145.339844 193.605469 C 125.566406 193.605469 109.539062 179.730469 109.539062 162.609375 Z M 181.140625 162.609375 "/>
<path style=" stroke:none;fill-rule:nonzero;fill:rgb(0%,0%,0%);fill-opacity:1;" d="M 216.601562 221.664062 L 74.078125 221.664062 C 65.457031 221.664062 58.449219 214.648438 58.449219 206.027344 L 58.449219 88.476562 C 58.449219 79.851562 65.457031 72.835938 74.078125 72.835938 L 216.601562 72.835938 C 225.222656 72.835938 232.226562 79.855469 232.226562 88.476562 L 232.226562 206.023438 C 232.226562 214.648438 225.21875 221.664062 216.601562 221.664062 Z M 74.078125 80.445312 C 69.648438 80.445312 66.046875 84.046875 66.046875 88.476562 L 66.046875 206.023438 C 66.046875 210.453125 69.648438 214.054688 74.078125 214.054688 L 216.601562 214.054688 C 221.03125 214.054688 224.628906 210.453125 224.628906 206.023438 L 224.628906 88.476562 C 224.628906 84.046875 221.03125 80.445312 216.601562 80.445312 Z M 74.078125 80.445312 "/>
<path style=" stroke:none;fill-rule:nonzero;fill:rgb(0%,0%,0%);fill-opacity:1;" d="M 109.539062 141.4375 C 100.648438 141.4375 93.417969 134.199219 93.417969 125.304688 C 93.417969 116.40625 100.648438 109.171875 109.539062 109.171875 C 118.425781 109.171875 125.65625 116.40625 125.65625 125.304688 C 125.65625 134.199219 118.425781 141.4375 109.539062 141.4375 Z M 109.539062 116.777344 C 104.839844 116.777344 101.019531 120.601562 101.019531 125.304688 C 101.019531 130.003906 104.839844 133.832031 109.539062 133.832031 C 114.234375 133.832031 118.054688 130.003906 118.054688 125.304688 C 118.054688 120.601562 114.234375 116.777344 109.539062 116.777344 Z M 109.539062 116.777344 "/>
<path style=" stroke:none;fill-rule:nonzero;fill:rgb(0%,0%,0%);fill-opacity:1;" d="M 181.140625 141.4375 C 172.253906 141.4375 165.023438 134.199219 165.023438 125.304688 C 165.023438 116.40625 172.253906 109.171875 181.140625 109.171875 C 190.03125 109.171875 197.261719 116.40625 197.261719 125.304688 C 197.261719 134.199219 190.03125 141.4375 181.140625 141.4375 Z M 181.140625 116.777344 C 176.445312 116.777344 172.625 120.601562 172.625 125.304688 C 172.625 130.003906 176.445312 133.832031 181.140625 133.832031 C 185.839844 133.832031 189.660156 130.003906 189.660156 125.304688 C 189.660156 120.601562 185.839844 116.777344 181.140625 116.777344 Z M 181.140625 116.777344 "/>
<path style=" stroke:none;fill-rule:nonzero;fill:rgb(0%,0%,0%);fill-opacity:1;" d="M 62.246094 186.722656 L 38.269531 186.722656 C 34.078125 186.722656 30.671875 183.3125 30.671875 179.117188 L 30.671875 119.957031 C 30.671875 115.761719 34.078125 112.351562 38.269531 112.351562 L 62.246094 112.351562 C 64.34375 112.351562 66.046875 114.050781 66.046875 116.152344 L 66.046875 182.921875 C 66.046875 185.019531 64.347656 186.722656 62.246094 186.722656 Z M 38.273438 119.957031 L 38.269531 119.957031 L 38.273438 179.117188 L 58.453125 179.117188 L 58.453125 119.957031 Z M 38.273438 119.957031 "/>
<path style=" stroke:none;fill-rule:nonzero;fill:rgb(0%,0%,0%);fill-opacity:1;" d="M 252.410156 186.722656 L 228.429688 186.722656 C 226.328125 186.722656 224.628906 185.023438 224.628906 182.921875 L 224.628906 116.152344 C 224.628906 114.050781 226.328125 112.351562 228.429688 112.351562 L 252.410156 112.351562 C 256.601562 112.351562 260.007812 115.761719 260.007812 119.957031 L 260.007812 179.117188 C 260.007812 183.308594 256.597656 186.722656 252.410156 186.722656 Z M 232.226562 179.117188 L 252.410156 179.117188 L 252.410156 119.957031 L 232.226562 119.957031 Z M 232.226562 179.117188 "/>
<path style=" stroke:none;fill-rule:nonzero;fill:rgb(77.254902%,80%,82.745098%);fill-opacity:1;" d="M 137.246094 45.171875 L 133.597656 76.625 L 157.082031 76.625 L 153.433594 45.171875 "/>
<path style=" stroke:none;fill-rule:nonzero;fill:rgb(77.254902%,80%,82.745098%);fill-opacity:1;" d="M 161.769531 30.859375 C 161.769531 39.949219 154.410156 47.316406 145.328125 47.316406 C 136.246094 47.316406 128.886719 39.949219 128.886719 30.859375 C 128.886719 21.769531 136.246094 14.402344 145.328125 14.402344 C 154.410156 14.402344 161.769531 21.769531 161.769531 30.859375 Z M 161.769531 30.859375 "/>
<path style=" stroke:none;fill-rule:nonzero;fill:rgb(0%,0%,0%);fill-opacity:1;" d="M 157.078125 80.445312 L 133.601562 80.445312 C 132.519531 80.445312 131.484375 79.980469 130.761719 79.167969 C 130.042969 78.359375 129.699219 77.277344 129.824219 76.203125 L 133.464844 44.722656 C 133.703125 42.632812 135.609375 41.117188 137.675781 41.382812 C 139.761719 41.621094 141.253906 43.511719 141.011719 45.597656 L 137.863281 72.839844 L 152.808594 72.839844 L 149.664062 45.609375 C 149.425781 43.523438 150.917969 41.636719 153 41.394531 C 155.105469 41.128906 156.976562 42.648438 157.210938 44.734375 L 160.847656 76.207031 C 160.972656 77.28125 160.628906 78.363281 159.914062 79.171875 C 159.195312 79.980469 158.160156 80.445312 157.078125 80.445312 Z M 157.078125 80.445312 "/>
<path style=" stroke:none;fill-rule:nonzero;fill:rgb(0%,0%,0%);fill-opacity:1;" d="M 145.339844 51.109375 C 134.179688 51.109375 125.097656 42.019531 125.097656 30.847656 C 125.097656 19.675781 134.179688 10.585938 145.339844 10.585938 C 156.5 10.585938 165.578125 19.675781 165.578125 30.847656 C 165.578125 42.019531 156.5 51.109375 145.339844 51.109375 Z M 145.339844 18.199219 C 138.371094 18.199219 132.699219 23.871094 132.699219 30.851562 C 132.699219 37.832031 138.367188 43.503906 145.339844 43.503906 C 152.308594 43.503906 157.976562 37.832031 157.976562 30.851562 C 157.976562 23.871094 152.308594 18.199219 145.339844 18.199219 Z M 145.339844 18.199219 "/>
<path style=" stroke:none;fill-rule:nonzero;fill:rgb(0%,0%,0%);fill-opacity:1;" d="M 145.339844 197.40625 C 123.5 197.40625 105.738281 181.800781 105.738281 162.613281 C 105.738281 160.511719 107.441406 158.8125 109.539062 158.8125 L 181.140625 158.8125 C 183.242188 158.8125 184.941406 160.511719 184.941406 162.613281 C 184.941406 181.804688 167.179688 197.40625 145.339844 197.40625 Z M 113.648438 166.417969 C 115.832031 179.617188 129.214844 189.800781 145.339844 189.800781 C 161.464844 189.800781 174.851562 179.613281 177.03125 166.417969 Z M 113.648438 166.417969 "/>
</g>
</svg>
