<?xml version="1.0" encoding="utf-8"?>
<svg viewBox="13.739 40.3 220.737 184.101" xmlns="http://www.w3.org/2000/svg">
  <g transform="matrix(0.72, 0, 0, 0.72, 120.67263, 95.942757)" style="">
    <g style="stroke: none; stroke-width: 0; stroke-dasharray: none; stroke-linecap: butt; stroke-linejoin: miter; stroke-miterlimit: 10; fill: none; fill-rule: nonzero; opacity: 1;" transform="translate(-175.05 -175.05000000000004) scale(3.89 3.89)">
      <path d="M 66.867 79.303 V 48.397 c 0 -1.719 -1.394 -3.113 -3.113 -3.113 H 26.246 c -1.719 0 -3.113 1.394 -3.113 3.113 v 30.906 c 0 1.719 1.394 3.113 3.113 3.113 h 37.508 C 65.473 82.415 66.867 81.022 66.867 79.303 z" style="stroke: none; stroke-width: 1; stroke-dasharray: none; stroke-linecap: butt; stroke-linejoin: miter; stroke-miterlimit: 10; fill: rgb(197,204,211); fill-rule: nonzero; opacity: 1;" transform=" matrix(1 0 0 1 0 0) " stroke-linecap="round"/>
      <path d="M 16.824 55.673 h 6.31 v 17.555 h -6.31 c -0.552 0 -1 -0.448 -1 -1 V 56.673 C 15.823 56.121 16.271 55.673 16.824 55.673 z" style="stroke: none; stroke-width: 1; stroke-dasharray: none; stroke-linecap: butt; stroke-linejoin: miter; stroke-miterlimit: 10; fill: rgb(197,204,211); fill-rule: nonzero; opacity: 1;" transform=" matrix(1 0 0 1 0 0) " stroke-linecap="round"/>
      <path d="M 66.867 55.673 h 6.31 c 0.552 0 1 0.448 1 1 v 15.554 c 0 0.552 -0.448 1 -1 1 h -6.31 V 55.673 z" style="stroke: none; stroke-width: 1; stroke-dasharray: none; stroke-linecap: butt; stroke-linejoin: miter; stroke-miterlimit: 10; fill: rgb(197,204,211); fill-rule: nonzero; opacity: 1;" transform=" matrix(1 0 0 1 0 0) " stroke-linecap="round"/>
      <circle cx="35.582" cy="58.082" r="3.242" style="stroke: none; stroke-width: 1; stroke-dasharray: none; stroke-linecap: butt; stroke-linejoin: miter; stroke-miterlimit: 10; fill: rgb(116,215,247); fill-rule: nonzero; opacity: 1;" transform="  matrix(1 0 0 1 0 0) "/>
      <circle cx="54.422" cy="58.082" r="3.242" style="stroke: none; stroke-width: 1; stroke-dasharray: none; stroke-linecap: butt; stroke-linejoin: miter; stroke-miterlimit: 10; fill: rgb(116,215,247); fill-rule: nonzero; opacity: 1;" transform="  matrix(1 0 0 1 0 0) "/>
      <path d="M 54.422 67.888 c 0 4.501 -4.218 8.149 -9.422 8.149 s -9.422 -3.648 -9.422 -8.149 H 54.422 z" style="stroke: none; stroke-width: 1; stroke-dasharray: none; stroke-linecap: butt; stroke-linejoin: miter; stroke-miterlimit: 10; fill: rgb(116,215,247); fill-rule: nonzero; opacity: 1;" transform=" matrix(1 0 0 1 0 0) " stroke-linecap="round"/>
      <path d="M 63.754 83.415 H 26.246 c -2.268 0 -4.113 -1.845 -4.113 -4.112 V 48.396 c 0 -2.268 1.845 -4.112 4.113 -4.112 h 37.508 c 2.268 0 4.112 1.845 4.112 4.112 v 30.906 C 67.866 81.57 66.021 83.415 63.754 83.415 z M 26.246 46.284 c -1.165 0 -2.113 0.947 -2.113 2.112 v 30.906 c 0 1.165 0.948 2.112 2.113 2.112 h 37.508 c 1.165 0 2.112 -0.947 2.112 -2.112 V 48.396 c 0 -1.165 -0.947 -2.112 -2.112 -2.112 H 26.246 z" style="stroke: none; stroke-width: 1; stroke-dasharray: none; stroke-linecap: butt; stroke-linejoin: miter; stroke-miterlimit: 10; fill: rgb(0,0,0); fill-rule: nonzero; opacity: 1;" transform=" matrix(1 0 0 1 0 0) " stroke-linecap="round"/>
      <path d="M 35.578 62.321 c -2.339 0 -4.242 -1.903 -4.242 -4.242 s 1.903 -4.242 4.242 -4.242 s 4.242 1.903 4.242 4.242 S 37.917 62.321 35.578 62.321 z M 35.578 55.837 c -1.236 0 -2.242 1.006 -2.242 2.242 s 1.006 2.242 2.242 2.242 s 2.242 -1.006 2.242 -2.242 S 36.814 55.837 35.578 55.837 z" style="stroke: none; stroke-width: 1; stroke-dasharray: none; stroke-linecap: butt; stroke-linejoin: miter; stroke-miterlimit: 10; fill: rgb(0,0,0); fill-rule: nonzero; opacity: 1;" transform=" matrix(1 0 0 1 0 0) " stroke-linecap="round"/>
      <path d="M 54.422 62.321 c -2.339 0 -4.242 -1.903 -4.242 -4.242 s 1.903 -4.242 4.242 -4.242 s 4.242 1.903 4.242 4.242 S 56.761 62.321 54.422 62.321 z M 54.422 55.837 c -1.236 0 -2.242 1.006 -2.242 2.242 s 1.006 2.242 2.242 2.242 s 2.242 -1.006 2.242 -2.242 S 55.658 55.837 54.422 55.837 z" style="stroke: none; stroke-width: 1; stroke-dasharray: none; stroke-linecap: butt; stroke-linejoin: miter; stroke-miterlimit: 10; fill: rgb(0,0,0); fill-rule: nonzero; opacity: 1;" transform=" matrix(1 0 0 1 0 0) " stroke-linecap="round"/>
      <path d="M 23.133 74.228 h -6.31 c -1.103 0 -2 -0.897 -2 -2 V 56.673 c 0 -1.103 0.897 -2 2 -2 h 6.31 c 0.552 0 1 0.447 1 1 v 17.555 C 24.133 73.78 23.686 74.228 23.133 74.228 z M 16.824 56.673 h -0.001 l 0.001 15.555 h 5.31 V 56.673 H 16.824 z" style="stroke: none; stroke-width: 1; stroke-dasharray: none; stroke-linecap: butt; stroke-linejoin: miter; stroke-miterlimit: 10; fill: rgb(0,0,0); fill-rule: nonzero; opacity: 1;" transform=" matrix(1 0 0 1 0 0) " stroke-linecap="round"/>
      <path d="M 73.177 74.228 h -6.311 c -0.553 0 -1 -0.447 -1 -1 V 55.673 c 0 -0.553 0.447 -1 1 -1 h 6.311 c 1.103 0 2 0.897 2 2 v 15.555 C 75.177 73.33 74.279 74.228 73.177 74.228 z M 67.866 72.228 h 5.311 V 56.673 h -5.311 V 72.228 z" style="stroke: none; stroke-width: 1; stroke-dasharray: none; stroke-linecap: butt; stroke-linejoin: miter; stroke-miterlimit: 10; fill: rgb(0,0,0); fill-rule: nonzero; opacity: 1;" transform=" matrix(1 0 0 1 0 0) " stroke-linecap="round"/>
      <polyline points="42.87,37.01 41.91,45.28 48.09,45.28 47.13,37.01 " style="stroke: none; stroke-width: 1; stroke-dasharray: none; stroke-linecap: butt; stroke-linejoin: miter; stroke-miterlimit: 10; fill: rgb(197,204,211); fill-rule: nonzero; opacity: 1;" transform="  matrix(1 0 0 1 0 0) "/>
      <circle cx="44.997" cy="33.247" r="4.327" style="stroke: none; stroke-width: 1; stroke-dasharray: none; stroke-linecap: butt; stroke-linejoin: miter; stroke-miterlimit: 10; fill: rgb(197,204,211); fill-rule: nonzero; opacity: 1;" transform="  matrix(1 0 0 1 0 0) "/>
      <path d="M 48.089 46.284 h -6.178 c -0.285 0 -0.557 -0.122 -0.747 -0.335 c -0.19 -0.213 -0.28 -0.497 -0.247 -0.78 l 0.958 -8.277 c 0.063 -0.549 0.564 -0.948 1.108 -0.878 c 0.549 0.063 0.942 0.56 0.878 1.108 l -0.829 7.163 h 3.934 l -0.828 -7.16 c -0.063 -0.548 0.33 -1.044 0.878 -1.108 c 0.554 -0.07 1.046 0.33 1.108 0.878 l 0.957 8.275 c 0.033 0.283 -0.057 0.567 -0.246 0.78 C 48.646 46.162 48.374 46.284 48.089 46.284 z" style="stroke: none; stroke-width: 1; stroke-dasharray: none; stroke-linecap: butt; stroke-linejoin: miter; stroke-miterlimit: 10; fill: rgb(0,0,0); fill-rule: nonzero; opacity: 1;" transform=" matrix(1 0 0 1 0 0) " stroke-linecap="round"/>
      <path d="M 45 38.571 c -2.937 0 -5.327 -2.39 -5.327 -5.327 s 2.39 -5.327 5.327 -5.327 c 2.937 0 5.326 2.39 5.326 5.327 S 47.937 38.571 45 38.571 z M 45 29.918 c -1.834 0 -3.327 1.492 -3.327 3.327 s 1.492 3.327 3.327 3.327 c 1.834 0 3.326 -1.492 3.326 -3.327 S 46.834 29.918 45 29.918 z" style="stroke: none; stroke-width: 1; stroke-dasharray: none; stroke-linecap: butt; stroke-linejoin: miter; stroke-miterlimit: 10; fill: rgb(0,0,0); fill-rule: nonzero; opacity: 1;" transform=" matrix(1 0 0 1 0 0) " stroke-linecap="round"/>
      <path d="M 45 77.037 c -5.747 0 -10.422 -4.104 -10.422 -9.148 c 0 -0.553 0.448 -1 1 -1 h 18.844 c 0.553 0 1 0.447 1 1 C 55.422 72.934 50.747 77.037 45 77.037 z M 36.66 68.889 c 0.575 3.47 4.096 6.148 8.34 6.148 s 7.766 -2.679 8.34 -6.148 H 36.66 z" style="stroke: none; stroke-width: 1; stroke-dasharray: none; stroke-linecap: butt; stroke-linejoin: miter; stroke-miterlimit: 10; fill: rgb(0,0,0); fill-rule: nonzero; opacity: 1;" transform=" matrix(1 0 0 1 0 0) " stroke-linecap="round"/>
    </g>
  </g>
</svg>